<svg xmlns="http://www.w3.org/2000/svg" xmlns:xlink="http://www.w3.org/1999/xlink" width="500" zoomAndPan="magnify" viewBox="0 0 375 374.999991" height="500" preserveAspectRatio="xMidYMid meet" version="1.0"><defs><g/></defs><rect x="-37.5" width="450" fill="#ffffff" y="-37.499999" height="449.999989" fill-opacity="1"/><rect x="-37.5" width="450" fill="#ffffff" y="-37.499999" height="449.999989" fill-opacity="1"/><g fill="#000000" fill-opacity="1"><g transform="translate(81.657158, 240.535573)"><g><path d="M 233.5625 62.328125 C 230.882812 62.734375 228.257812 63.039062 225.6875 63.25 C 223.113281 63.457031 220.492188 63.5625 217.828125 63.5625 C 201.773438 63.5625 187.269531 59.957031 174.3125 52.75 C 161.351562 45.550781 149.375 36.140625 138.375 24.515625 C 127.375 12.898438 117.242188 -0.207031 107.984375 -14.8125 C 98.734375 -29.414062 89.785156 -44.171875 81.140625 -59.078125 C 72.503906 -73.992188 64.019531 -88.394531 55.6875 -102.28125 C 47.351562 -116.164062 38.664062 -128.144531 29.625 -138.21875 L 29.625 -22.515625 C 29.625 -16.765625 31.21875 -11.984375 34.40625 -8.171875 C 37.59375 -4.367188 41.859375 -1.644531 47.203125 0 L 10.484375 0 C 15.835938 -1.644531 20.003906 -4.421875 22.984375 -8.328125 C 25.960938 -12.234375 27.453125 -16.960938 27.453125 -22.515625 L 27.453125 -140.6875 C 18.609375 -150.5625 8.378906 -158.632812 -3.234375 -164.90625 C -14.859375 -171.175781 -27.457031 -174.3125 -41.03125 -174.3125 C -50.90625 -174.3125 -60.472656 -173.082031 -69.734375 -170.625 L -70.65625 -173.09375 C -65.300781 -174.726562 -59.953125 -175.851562 -54.609375 -176.46875 C -49.265625 -177.09375 -43.914062 -177.40625 -38.5625 -177.40625 C -24.164062 -177.40625 -10.898438 -174.988281 1.234375 -170.15625 C 13.367188 -165.320312 24.578125 -158.789062 34.859375 -150.5625 C 45.148438 -142.332031 54.664062 -132.867188 63.40625 -122.171875 C 72.144531 -111.484375 80.21875 -100.222656 87.625 -88.390625 C 95.03125 -76.566406 101.921875 -64.585938 108.296875 -52.453125 C 114.671875 -40.316406 120.738281 -28.796875 126.5 -17.890625 L 126.5 -128.96875 C 126.5 -140.488281 120.738281 -147.894531 109.21875 -151.1875 L 146.25 -151.1875 C 140.894531 -149.539062 136.726562 -146.8125 133.75 -143 C 130.769531 -139.195312 129.28125 -134.519531 129.28125 -128.96875 L 129.28125 -13.578125 C 133.800781 -5.347656 138.941406 3.082031 144.703125 11.71875 C 150.460938 20.363281 156.890625 28.285156 163.984375 35.484375 C 171.078125 42.679688 178.941406 48.59375 187.578125 53.21875 C 196.222656 57.84375 205.789062 60.15625 216.28125 60.15625 L 221.21875 60.15625 C 223.269531 60.15625 225.273438 60.15625 227.234375 60.15625 C 229.191406 60.15625 231.09375 59.953125 232.9375 59.546875 Z M 233.5625 62.328125 "/></g></g></g><g fill="#000000" fill-opacity="1"><g transform="translate(201.858565, 276.77894)"><g><path d="M 118.3125 -42.9375 C 118.3125 -47.0625 117.6875 -50.3125 116.4375 -52.6875 C 115.1875 -55.0625 113.625 -56.84375 111.75 -58.03125 C 109.875 -59.21875 107.75 -60 105.375 -60.375 C 103 -60.75 100.625 -60.9375 98.25 -60.9375 L 86.25 -60.9375 L 86.25 -62.625 L 135.9375 -62.625 L 135.9375 -60.9375 C 134.9375 -60.9375 134.21875 -60.375 133.78125 -59.25 C 133.34375 -58.125 133.03125 -56.71875 132.84375 -55.03125 C 132.65625 -53.34375 132.5 -51.5625 132.375 -49.6875 C 132.25 -47.8125 132 -46.125 131.625 -44.625 C 129.375 -34.5 125.15625 -26.0625 118.96875 -19.3125 C 112.78125 -12.5625 105.59375 -7.5 97.40625 -4.125 C 89.21875 -0.75 80.5 0.84375 71.25 0.65625 C 62 0.46875 53.1875 -1.4375 44.8125 -5.0625 C 36.4375 -8.6875 28.9375 -14.125 22.3125 -21.375 C 15.6875 -28.625 10.9375 -37.6875 8.0625 -48.5625 C 5.6875 -57.4375 5.125 -66.25 6.375 -75 C 7.625 -83.75 10.375 -91.8125 14.625 -99.1875 C 18.875 -106.5625 24.46875 -112.96875 31.40625 -118.40625 C 38.34375 -123.84375 46.25 -127.75 55.125 -130.125 C 61.5 -131.875 67.875 -132.625 74.25 -132.375 C 80.625 -132.125 86.75 -131.0625 92.625 -129.1875 C 98.5 -127.3125 104.03125 -124.65625 109.21875 -121.21875 C 114.40625 -117.78125 119 -113.6875 123 -108.9375 L 118.5 -92.4375 L 116.8125 -92.4375 C 113.9375 -98.1875 110.375 -103.65625 106.125 -108.84375 C 101.875 -114.03125 97.125 -118.375 91.875 -121.875 C 86.625 -125.375 80.9375 -127.8125 74.8125 -129.1875 C 68.6875 -130.5625 62.25 -130.375 55.5 -128.625 C 47.375 -126.5 40.6875 -122.6875 35.4375 -117.1875 C 30.1875 -111.6875 26.1875 -105.34375 23.4375 -98.15625 C 20.6875 -90.96875 19.15625 -83.3125 18.84375 -75.1875 C 18.53125 -67.0625 19.3125 -59.375 21.1875 -52.125 C 23.6875 -42.875 27.40625 -35 32.34375 -28.5 C 37.28125 -22 42.875 -16.78125 49.125 -12.84375 C 55.375 -8.90625 62.03125 -6.28125 69.09375 -4.96875 C 76.15625 -3.65625 83.0625 -3.625 89.8125 -4.875 C 96.1875 -6.25 101.25 -8.34375 105 -11.15625 C 108.75 -13.96875 111.59375 -17.15625 113.53125 -20.71875 C 115.46875 -24.28125 116.75 -28 117.375 -31.875 C 118 -35.75 118.3125 -39.4375 118.3125 -42.9375 Z M 118.3125 -42.9375 "/></g></g></g><g fill="#000000" fill-opacity="1"><g transform="translate(289.05725, 211.192865)"><g><path d="M 4.34375 0 L 0.03125 0 L 0.03125 -0.734375 L 0.15625 -0.734375 C 0.5625 -0.742188 0.90625 -0.863281 1.1875 -1.09375 C 1.46875 -1.320312 1.6875 -1.617188 1.84375 -1.984375 L 5.765625 -11.09375 L 6.5625 -11.09375 L 10.640625 -1.5 C 10.765625 -1.21875 10.910156 -1.019531 11.078125 -0.90625 C 11.253906 -0.789062 11.488281 -0.734375 11.78125 -0.734375 L 11.90625 -0.734375 L 11.90625 0 L 7.375 0 L 7.375 -0.734375 L 7.5 -0.734375 C 7.644531 -0.734375 7.816406 -0.75 8.015625 -0.78125 C 8.222656 -0.820312 8.328125 -0.941406 8.328125 -1.140625 C 8.328125 -1.242188 8.3125 -1.335938 8.28125 -1.421875 L 7.109375 -4.1875 L 3.6875 -4.1875 L 2.734375 -1.890625 C 2.710938 -1.835938 2.695312 -1.765625 2.6875 -1.671875 C 2.675781 -1.585938 2.671875 -1.507812 2.671875 -1.4375 C 2.671875 -1.144531 2.785156 -0.957031 3.015625 -0.875 C 3.242188 -0.800781 3.46875 -0.753906 3.6875 -0.734375 C 3.78125 -0.734375 3.867188 -0.734375 3.953125 -0.734375 C 4.046875 -0.734375 4.132812 -0.734375 4.21875 -0.734375 L 4.34375 -0.734375 Z M 5.375 -8.25 L 3.984375 -4.921875 L 6.796875 -4.921875 Z M 5.375 -8.25 "/></g></g></g><g fill="#000000" fill-opacity="1"><g transform="translate(302.723951, 211.192865)"><g><path d="M 0.234375 -1.390625 C 0.210938 -1.429688 0.203125 -1.476562 0.203125 -1.53125 L 0.546875 -3.984375 L 1.21875 -3.890625 L 1.21875 -3.8125 C 1.257812 -3.425781 1.375 -3.039062 1.5625 -2.65625 C 1.757812 -2.269531 2.015625 -1.914062 2.328125 -1.59375 C 2.640625 -1.28125 2.984375 -1.023438 3.359375 -0.828125 C 3.742188 -0.640625 4.148438 -0.546875 4.578125 -0.546875 C 5.066406 -0.546875 5.476562 -0.691406 5.8125 -0.984375 C 6.144531 -1.273438 6.3125 -1.65625 6.3125 -2.125 C 6.3125 -2.457031 6.210938 -2.75 6.015625 -3 C 5.828125 -3.25 5.59375 -3.472656 5.3125 -3.671875 C 5.039062 -3.867188 4.773438 -4.035156 4.515625 -4.171875 C 4.335938 -4.253906 4.15625 -4.34375 3.96875 -4.4375 C 3.789062 -4.539062 3.613281 -4.640625 3.4375 -4.734375 C 2.945312 -4.984375 2.46875 -5.257812 2 -5.5625 C 1.539062 -5.863281 1.160156 -6.222656 0.859375 -6.640625 C 0.566406 -7.054688 0.421875 -7.554688 0.421875 -8.140625 C 0.421875 -8.859375 0.613281 -9.453125 1 -9.921875 C 1.394531 -10.390625 1.894531 -10.734375 2.5 -10.953125 C 3.113281 -11.171875 3.742188 -11.28125 4.390625 -11.28125 C 4.691406 -11.28125 5.039062 -11.253906 5.4375 -11.203125 C 5.84375 -11.148438 6.234375 -11.054688 6.609375 -10.921875 C 6.992188 -10.796875 7.304688 -10.628906 7.546875 -10.421875 C 7.578125 -10.398438 7.625 -10.351562 7.6875 -10.28125 C 7.71875 -10.25 7.738281 -10.21875 7.75 -10.1875 C 7.769531 -10.15625 7.789062 -10.117188 7.8125 -10.078125 L 8.109375 -7.546875 L 7.375 -7.546875 L 7.359375 -7.609375 C 7.242188 -7.921875 7.082031 -8.25 6.875 -8.59375 C 6.664062 -8.9375 6.414062 -9.257812 6.125 -9.5625 C 5.84375 -9.875 5.535156 -10.125 5.203125 -10.3125 C 4.878906 -10.5 4.535156 -10.59375 4.171875 -10.59375 C 3.691406 -10.59375 3.300781 -10.460938 3 -10.203125 C 2.695312 -9.941406 2.546875 -9.582031 2.546875 -9.125 C 2.546875 -8.78125 2.625 -8.476562 2.78125 -8.21875 C 2.9375 -7.96875 3.15625 -7.726562 3.4375 -7.5 C 3.726562 -7.25 4.046875 -7.03125 4.390625 -6.84375 C 4.742188 -6.65625 5.097656 -6.472656 5.453125 -6.296875 C 5.941406 -6.035156 6.414062 -5.753906 6.875 -5.453125 C 7.332031 -5.148438 7.710938 -4.796875 8.015625 -4.390625 C 8.316406 -3.984375 8.46875 -3.484375 8.46875 -2.890625 C 8.46875 -2.316406 8.34375 -1.832031 8.09375 -1.4375 C 7.84375 -1.050781 7.507812 -0.738281 7.09375 -0.5 C 6.675781 -0.257812 6.21875 -0.0859375 5.71875 0.015625 C 5.226562 0.117188 4.738281 0.171875 4.25 0.171875 C 3.851562 0.171875 3.414062 0.125 2.9375 0.03125 C 2.46875 -0.0625 2.007812 -0.203125 1.5625 -0.390625 C 1.125 -0.578125 0.757812 -0.8125 0.46875 -1.09375 C 0.445312 -1.113281 0.421875 -1.140625 0.390625 -1.171875 C 0.367188 -1.203125 0.34375 -1.234375 0.3125 -1.265625 C 0.300781 -1.285156 0.285156 -1.304688 0.265625 -1.328125 C 0.253906 -1.347656 0.242188 -1.367188 0.234375 -1.390625 Z M 0.234375 -1.390625 "/></g></g></g><g fill="#000000" fill-opacity="1"><g transform="translate(313.183648, 211.192865)"><g><path d="M 4.34375 0 L 0.03125 0 L 0.03125 -0.734375 L 0.15625 -0.734375 C 0.5625 -0.742188 0.90625 -0.863281 1.1875 -1.09375 C 1.46875 -1.320312 1.6875 -1.617188 1.84375 -1.984375 L 5.765625 -11.09375 L 6.5625 -11.09375 L 10.640625 -1.5 C 10.765625 -1.21875 10.910156 -1.019531 11.078125 -0.90625 C 11.253906 -0.789062 11.488281 -0.734375 11.78125 -0.734375 L 11.90625 -0.734375 L 11.90625 0 L 7.375 0 L 7.375 -0.734375 L 7.5 -0.734375 C 7.644531 -0.734375 7.816406 -0.75 8.015625 -0.78125 C 8.222656 -0.820312 8.328125 -0.941406 8.328125 -1.140625 C 8.328125 -1.242188 8.3125 -1.335938 8.28125 -1.421875 L 7.109375 -4.1875 L 3.6875 -4.1875 L 2.734375 -1.890625 C 2.710938 -1.835938 2.695312 -1.765625 2.6875 -1.671875 C 2.675781 -1.585938 2.671875 -1.507812 2.671875 -1.4375 C 2.671875 -1.144531 2.785156 -0.957031 3.015625 -0.875 C 3.242188 -0.800781 3.46875 -0.753906 3.6875 -0.734375 C 3.78125 -0.734375 3.867188 -0.734375 3.953125 -0.734375 C 4.046875 -0.734375 4.132812 -0.734375 4.21875 -0.734375 L 4.34375 -0.734375 Z M 5.375 -8.25 L 3.984375 -4.921875 L 6.796875 -4.921875 Z M 5.375 -8.25 "/></g></g></g><g fill="#000000" fill-opacity="1"><g transform="translate(326.850349, 211.192865)"><g><path d="M 0.0625 -11.09375 L 4.203125 -11.09375 L 4.203125 -10.359375 L 4.078125 -10.359375 C 3.816406 -10.359375 3.609375 -10.3125 3.453125 -10.21875 C 3.304688 -10.125 3.234375 -9.953125 3.234375 -9.703125 L 3.265625 -0.734375 L 4.46875 -0.734375 C 5 -0.734375 5.515625 -0.800781 6.015625 -0.9375 C 6.515625 -1.082031 6.960938 -1.300781 7.359375 -1.59375 C 7.765625 -1.894531 8.078125 -2.28125 8.296875 -2.75 L 8.328125 -2.828125 L 9.046875 -2.796875 L 8.28125 0 L 0.0625 0 L 0.0625 -0.734375 L 0.1875 -0.734375 C 0.445312 -0.734375 0.65625 -0.78125 0.8125 -0.875 C 0.96875 -0.976562 1.046875 -1.15625 1.046875 -1.40625 L 1.046875 -9.703125 C 1.046875 -9.953125 0.96875 -10.125 0.8125 -10.21875 C 0.65625 -10.3125 0.445312 -10.359375 0.1875 -10.359375 L 0.0625 -10.359375 Z M 0.0625 -11.09375 "/></g></g></g></svg>